<svg xmlns="http://www.w3.org/2000/svg" xmlns:xlink="http://www.w3.org/1999/xlink" width="540.254" height="642.422" viewBox="0 0 540.254 642.422"><defs><filter id="a" x="0" y="0" width="540.254" height="540.254" filterUnits="userSpaceOnUse"><feOffset dy="3" input="SourceAlpha"/><feGaussianBlur stdDeviation="49.5" result="b"/><feFlood flood-color="#ffe6af"/><feComposite operator="in" in2="b"/><feComposite in="SourceGraphic"/></filter></defs><g transform="translate(-49.708 46.832)"><g transform="matrix(1, 0, 0, 1, 49.71, -46.83)" filter="url(#a)"><circle cx="86.5" cy="86.5" r="86.5" transform="translate(183.63 180.63)" fill="#ffec9e"/></g><path d="M22.921,0H285.75a22.921,22.921,0,0,1,22.921,22.921V220.043a22.921,22.921,0,0,1-22.921,22.921H22.921A22.921,22.921,0,0,1,0,220.043V22.921A22.921,22.921,0,0,1,22.921,0Z" transform="translate(165 346.627)" fill="#fff"/><path d="M22.921-6H285.75a28.954,28.954,0,0,1,28.921,28.921V220.043a28.954,28.954,0,0,1-28.921,28.921H22.921A28.954,28.954,0,0,1-6,220.043V22.921A28.954,28.954,0,0,1,22.921-6ZM285.75,236.964a16.94,16.94,0,0,0,16.921-16.921V22.921A16.94,16.94,0,0,0,285.75,6H22.921A16.94,16.94,0,0,0,6,22.921V220.043a16.94,16.94,0,0,0,16.921,16.921Z" transform="translate(165 346.627)" fill="#010001"/><path d="M139.776,166.162l-52.818-63.78H15a15,15,0,0,1-15-15V15A15,15,0,0,1,15,0H275.334a15,15,0,0,1,15,15V87.381a15,15,0,0,1-15,15H203.378l-52.819,63.78a7,7,0,0,1-10.782,0Z" transform="translate(175.696 239.662)" fill="#f0bc47"/><path d="M145.167,174.7a12.96,12.96,0,0,1-10.012-4.709L84.136,108.381H15a21.024,21.024,0,0,1-21-21V15A21.024,21.024,0,0,1,15-6H275.334a21.024,21.024,0,0,1,21,21V87.381a21.024,21.024,0,0,1-21,21H206.2l-51.02,61.607A12.959,12.959,0,0,1,145.167,174.7ZM15,6a9.01,9.01,0,0,0-9,9V87.381a9.01,9.01,0,0,0,9,9H86.958a6,6,0,0,1,4.621,2.173l52.818,63.78.77.362a.972.972,0,0,0,.77-.362l52.82-63.781a6,6,0,0,1,4.621-2.173h71.957a9.01,9.01,0,0,0,9-9V15a9.01,9.01,0,0,0-9-9Z" transform="translate(175.696 239.662)" fill="#010001"/><g transform="translate(258.212 161.09)"><path d="M114.625,192.563,82.48,230.791,47.688,192.563V168.657h66.938Zm-.359-47.813H48.046a62.156,62.156,0,1,1,66.22,0Z" transform="translate(-19 -30)" fill="#fff"/><path d="M82.479,237.791A7,7,0,0,1,77.3,235.5L42.511,197.275a7,7,0,0,1-1.823-4.712V168.657a7,7,0,0,1,7-7h66.938a7,7,0,0,1,7,7v23.906a7,7,0,0,1-1.642,4.505L87.837,235.3a7,7,0,0,1-5.22,2.494ZM54.688,189.854l27.584,30.308,25.354-30.151V175.657H54.688Zm59.579-38.1H48.046a7,7,0,0,1-3.732-1.078,69.156,69.156,0,1,1,73.684,0A7,7,0,0,1,114.267,151.75Zm-64.135-14h62.049a55.156,55.156,0,1,0-62.049,0Z" transform="translate(-19 -30)" fill="#010001"/></g><path d="M30,200.02V30H80.006l50.006,62.507L180.017,30h50.006V200.02H180.017V102.508l-50.006,62.507L80.006,102.508V200.02Z" transform="translate(190.852 359.975)" fill="#503491"/></g></svg>